<?xml version="1.0" encoding="utf-8"?>
<!-- Generator: Adobe Illustrator 19.0.0, SVG Export Plug-In . SVG Version: 6.00 Build 0)  -->
<svg version="1.1" id="Layer_1" xmlns="http://www.w3.org/2000/svg" xmlns:xlink="http://www.w3.org/1999/xlink" x="0px" y="0px"
	 viewBox="0 0 256 256" style="enable-background:new 0 0 256 256;" xml:space="preserve">
<style type="text/css">
	.st0{fill:#2B2B2B;}
</style>
<g id="XMLID_83_">
	<g id="XMLID_50_">
		<path id="XMLID_19_" class="st0" d="M1039.3,180.3c-51.8,0-93.8,15.1-93.8,33.8v47.2c-0.1,0.6-0.1,1.2-0.1,1.9
			c0,18.7,42,33.8,93.8,33.8s93.8-15.1,93.8-33.8h0.1v-49C1133.1,195.4,1091.1,180.3,1039.3,180.3z M1039.3,241.7
			c-42.3,0-76.6-12.4-76.6-27.6c0-15.2,34.3-27.6,76.6-27.6s76.6,12.4,76.6,27.6C1116,229.3,1081.7,241.7,1039.3,241.7z"/>
		<g id="XMLID_49_">
			<g id="XMLID_36_">
				<path id="XMLID_32_" class="st0" d="M935.7,84h-50.7c-4.4,0-7.9-3.5-7.9-7.9V48.8c0-4.4,3.5-7.9,7.9-7.9h50.7
					c4.4,0,7.9,3.5,7.9,7.9v27.2C943.6,80.4,940.1,84,935.7,84z"/>
				<path id="XMLID_45_" class="st0" d="M1033.5,69.2h-99.1c-3,0-5.5-2.5-5.5-5.5s2.5-5.5,5.5-5.5h99.1c3,0,5.5,2.5,5.5,5.5
					S1036.6,69.2,1033.5,69.2z"/>
			</g>
			<g id="XMLID_48_">
				<g id="XMLID_47_">
					<g id="XMLID_39_">
						<path id="XMLID_46_" class="st0" d="M935.7,148h-50.7c-4.4,0-7.9-3.5-7.9-7.9v-27.2c0-4.4,3.5-7.9,7.9-7.9h50.7
							c4.4,0,7.9,3.5,7.9,7.9v27.2C943.6,144.4,940.1,148,935.7,148z"/>
						<path id="XMLID_44_" class="st0" d="M1033.5,133.2h-93.1c-3,0-5.5-2.5-5.5-5.5s2.5-5.5,5.5-5.5h93.1c3,0,5.5,2.5,5.5,5.5
							S1036.6,133.2,1033.5,133.2z"/>
					</g>
					<path id="XMLID_43_" class="st0" d="M1033.5,226.8c-3,0-5.5-2.5-5.5-5.5V63.7c0-3,2.5-5.5,5.5-5.5s5.5,2.5,5.5,5.5v157.6
						C1039,224.3,1036.6,226.8,1033.5,226.8z"/>
				</g>
				<path id="XMLID_42_" class="st0" d="M1033.5,226.8c-1.5,0-3-0.6-4.1-1.8c-2-2.2-1.9-5.7,0.4-7.8l20.9-19c2.2-2,5.7-1.9,7.8,0.4
					c2,2.2,1.9,5.7-0.4,7.8l-20.9,19C1036.2,226.3,1034.9,226.8,1033.5,226.8z"/>
				<path id="XMLID_40_" class="st0" d="M1033.5,226.8c-1.3,0-2.6-0.5-3.7-1.4l-20.9-19c-2.2-2-2.4-5.5-0.4-7.8s5.5-2.4,7.8-0.4
					l20.9,19c2.2,2,2.4,5.5,0.4,7.8C1036.5,226.2,1035,226.8,1033.5,226.8z"/>
			</g>
		</g>
	</g>
</g>
<g id="XMLID_160_">
	<path id="XMLID_202_" class="st0" d="M212.2,161.1c-0.3-2.3-2.2-4.1-4.6-4.1h-11h0c-13,0-19.6-15.8-10.4-25l0,0l7.8-7.8
		c1.7-1.7,1.8-4.3,0.3-6.2l-6.1-7.6l-7.6-6.1c-1.8-1.5-4.5-1.3-6.2,0.3l-7.8,7.8l0,0c-9.2,9.2-25,2.7-25-10.4v-3.8v-7.2
		c0-2.4-1.8-4.3-4.1-4.6l-9.6-1.1l-9.6,1.1c-2.3,0.3-4.1,2.2-4.1,4.6v7.2v3.8c0,13-15.8,19.6-25,10.4l-2.7-2.7l-5.1-5.1
		c-1.7-1.7-4.3-1.8-6.2-0.3l-7.6,6.1l-6.1,7.6c-1.5,1.8-1.3,4.5,0.3,6.2l5.1,5.1l2.7,2.7c9.2,9.2,2.7,25-10.4,25h-3.8h-7.2
		c-2.4,0-4.3,1.8-4.6,4.1l-1.1,9.6l1.1,9.6c0.3,2.3,2.2,4.1,4.6,4.1h7.2h3.8c13,0,19.6,15.8,10.4,25l-2.7,2.7l-5.1,5.1
		c-1.7,1.7-1.8,4.3-0.3,6.2l6.1,7.6l7.6,6.1c1.8,1.5,4.5,1.3,6.2-0.3l5.1-5.1l2.7-2.7c9.2-9.2,25-2.7,25,10.4v0v11
		c0,2.4,1.8,4.3,4.1,4.6l9.6,1.1l9.6-1.1c2.3-0.3,4.1-2.2,4.1-4.6v-11v0c0-13,15.8-19.6,25-10.4l0,0l7.8,7.8
		c1.7,1.7,4.3,1.8,6.2,0.3l7.6-6.1l6.1-7.6c1.5-1.8,1.3-4.5-0.3-6.2l-7.8-7.8l0,0c-9.2-9.2-2.7-25,10.4-25h11c2.4,0,4.3-1.8,4.6-4.1
		l1.1-9.6L212.2,161.1z M128,207.3c-20.2,0-36.5-16.4-36.5-36.5c0-20.2,16.4-36.5,36.5-36.5c20.2,0,36.5,16.4,36.5,36.5
		C164.5,190.9,148.2,207.3,128,207.3z"/>
	<path id="XMLID_185_" class="st0" d="M164.3,39.1c-5,0-9-4-9-9c0-5,4-9,9-9s9,4,9,9C173.3,35.1,169.3,39.1,164.3,39.1z M191.2,39.1
		c-5,0-9-4-9-9c0-5,4-9,9-9c5,0,9,4,9,9C200.2,35.1,196.2,39.1,191.2,39.1z M218,39.1c-5,0-9-4-9-9c0-5,4-9,9-9c5,0,9,4,9,9
		C227,35.1,223,39.1,218,39.1z M242.1,62.6v122.2h-15c-2.2,6.2-7.3,11.3-13.6,13.3c0.1,0.3,0.1,0.6,0.2,0.9l32.8,0
		c5.3,0,9.6-4.3,9.6-9.6V9.6v0c0-5.3-4.3-9.6-9.6-9.6H9.6C4.3,0,0,4.3,0,9.6v179.7c0,5.3,4.3,9.6,9.6,9.6l32.8,0
		c0-0.3,0.1-0.6,0.2-0.9c-6.3-2-11.4-7.1-13.6-13.3h-15V62.6L242.1,62.6z"/>
</g>
</svg>
