<?xml version="1.0" encoding="utf-8"?>
<!-- Generator: Adobe Illustrator 19.0.0, SVG Export Plug-In . SVG Version: 6.00 Build 0)  -->
<svg version="1.1" id="Layer_1" xmlns="http://www.w3.org/2000/svg" xmlns:xlink="http://www.w3.org/1999/xlink" x="0px" y="0px"
	 viewBox="0 0 256 256" style="enable-background:new 0 0 256 256;" xml:space="preserve">
<style type="text/css">
	.st0{fill:#2B2B2B;}
</style>
<g id="XMLID_83_">
	<g id="XMLID_50_">
		<path id="XMLID_19_" class="st0" d="M1039.3,180.3c-51.8,0-93.8,15.1-93.8,33.8v47.2c-0.1,0.6-0.1,1.2-0.1,1.9
			c0,18.7,42,33.8,93.8,33.8s93.8-15.1,93.8-33.8h0.1v-49C1133.1,195.4,1091.1,180.3,1039.3,180.3z M1039.3,241.7
			c-42.3,0-76.6-12.4-76.6-27.6c0-15.2,34.3-27.6,76.6-27.6s76.6,12.4,76.6,27.6C1116,229.3,1081.7,241.7,1039.3,241.7z"/>
		<g id="XMLID_49_">
			<g id="XMLID_36_">
				<path id="XMLID_32_" class="st0" d="M935.7,84h-50.7c-4.4,0-7.9-3.5-7.9-7.9V48.8c0-4.4,3.5-7.9,7.9-7.9h50.7
					c4.4,0,7.9,3.5,7.9,7.9v27.2C943.6,80.4,940.1,84,935.7,84z"/>
				<path id="XMLID_45_" class="st0" d="M1033.5,69.2h-99.1c-3,0-5.5-2.5-5.5-5.5s2.5-5.5,5.5-5.5h99.1c3,0,5.5,2.5,5.5,5.5
					S1036.6,69.2,1033.5,69.2z"/>
			</g>
			<g id="XMLID_48_">
				<g id="XMLID_47_">
					<g id="XMLID_39_">
						<path id="XMLID_46_" class="st0" d="M935.7,148h-50.7c-4.4,0-7.9-3.5-7.9-7.9v-27.2c0-4.4,3.5-7.9,7.9-7.9h50.7
							c4.4,0,7.9,3.5,7.9,7.9v27.2C943.6,144.4,940.1,148,935.7,148z"/>
						<path id="XMLID_44_" class="st0" d="M1033.5,133.2h-93.1c-3,0-5.5-2.5-5.5-5.5s2.5-5.5,5.5-5.5h93.1c3,0,5.5,2.5,5.5,5.5
							S1036.6,133.2,1033.5,133.2z"/>
					</g>
					<path id="XMLID_43_" class="st0" d="M1033.5,226.8c-3,0-5.5-2.5-5.5-5.5V63.7c0-3,2.5-5.5,5.5-5.5s5.5,2.5,5.5,5.5v157.6
						C1039,224.3,1036.6,226.8,1033.5,226.8z"/>
				</g>
				<path id="XMLID_42_" class="st0" d="M1033.5,226.8c-1.5,0-3-0.6-4.1-1.8c-2-2.2-1.9-5.7,0.4-7.8l20.9-19c2.2-2,5.7-1.9,7.8,0.4
					c2,2.2,1.9,5.7-0.4,7.8l-20.9,19C1036.2,226.3,1034.9,226.8,1033.5,226.8z"/>
				<path id="XMLID_40_" class="st0" d="M1033.5,226.8c-1.3,0-2.6-0.5-3.7-1.4l-20.9-19c-2.2-2-2.4-5.5-0.4-7.8s5.5-2.4,7.8-0.4
					l20.9,19c2.2,2,2.4,5.5,0.4,7.8C1036.5,226.2,1035,226.8,1033.5,226.8z"/>
			</g>
		</g>
	</g>
</g>
<g id="XMLID_9_">
	<path id="XMLID_78_" class="st0" d="M120.7,104.1h25.7c1,0,1.7,1,1.3,2l-17.5,41.8h22.7c1.5,0,2.4,1.7,1.5,2.9l-51.8,74.5
		c-0.5,0.7-1.5,0.1-1.2-0.6l23.4-61.2H103c-1,0-1.6-0.9-1.3-1.8l17.7-56.6C119.5,104.5,120.1,104.1,120.7,104.1z"/>
	<path id="XMLID_16_" class="st0" d="M168.7,141.5c3.1,5.9,2.6,13-1.2,18.5l-18.7,26.8c60.8-3,107.2-18.6,107.2-37.5v-42.4
		c0-1.4-1.9-2.1-2.8-1c-11.3,13.5-47.3,24.2-92.8,27.6C163.9,135.2,166.8,137.9,168.7,141.5z"/>
	<path id="XMLID_67_" class="st0" d="M89,172.4c-3.3-4.4-4.2-10.2-2.6-15.5l7.3-23.5c-44.6-3.6-79.8-14.2-90.9-27.5
		c-0.9-1.1-2.8-0.5-2.8,1v42.4c0,18,42.2,33.1,98.9,37l2.6-6.9C96.6,179,91.9,176.5,89,172.4z"/>
	<path id="XMLID_79_" class="st0" d="M102,241.6c-5.5,0-10.6-2.7-13.8-7.2c-3.1-4.5-3.8-10.3-1.8-15.4l6.5-16.9
		c-44.2-3.7-79-14.2-90.1-27.4c-0.9-1.1-2.8-0.5-2.8,1V218c0,21,57.3,38,128,38s128-17,128-38v-42.4c0-1.4-1.9-2.1-2.8-1
		c-13.2,15.7-59.9,27.6-115.9,28.8l-21.6,31.1C112.6,239,107.5,241.6,102,241.6z"/>
	<path id="XMLID_82_" class="st0" d="M120.7,88.1h25.7c5.8,0,11.3,2.9,14.5,7.8s3.8,11,1.6,16.4l-3.5,8.2c55.6-4.1,96.8-19,97-36.7
		h0v-46h0C255.7,16.9,198.5,0,128,0S0.3,16.9,0,37.8h0v46h0c0.3,17.8,41.8,32.7,97.7,36.7l6.3-20.2C106.4,93,113,88.1,120.7,88.1z
		 M37.1,38c0-14.9,40.7-27,90.9-27s90.9,12.1,90.9,27s-40.7,27-90.9,27S37.1,52.9,37.1,38z"/>
</g>
</svg>
