<?xml version="1.0" encoding="utf-8"?>
<!-- Generator: Adobe Illustrator 19.0.0, SVG Export Plug-In . SVG Version: 6.00 Build 0)  -->
<svg version="1.1" id="Layer_1" xmlns="http://www.w3.org/2000/svg" xmlns:xlink="http://www.w3.org/1999/xlink" x="0px" y="0px"
	 viewBox="0 0 256 256" style="enable-background:new 0 0 256 256;" xml:space="preserve">
<style type="text/css">
	.st0{fill:#2B2B2B;}
</style>
<g id="XMLID_239_">
	<path id="XMLID_242_" class="st0" d="M128,134.8c-60.1,0-111.3-12.3-125.2-28.9c-0.9-1.1-2.8-0.5-2.8,1v42.4c0,21,57.3,38,128,38
		s128-17,128-38v-42.4c0-1.4-1.9-2.1-2.8-1C239.3,122.5,188.1,134.8,128,134.8z"/>
	<path id="XMLID_245_" class="st0" d="M128,203.5c-60.1,0-111.3-12.3-125.2-28.9c-0.9-1.1-2.8-0.5-2.8,1V218c0,21,57.3,38,128,38
		s128-17,128-38v-42.4c0-1.4-1.9-2.1-2.8-1C239.3,191.2,188.1,203.5,128,203.5z"/>
	<path id="XMLID_258_" class="st0" d="M256,37.8C255.7,16.9,198.5,0,128,0S0.3,16.9,0,37.8h0v46h0c0.3,20.9,57.5,37.8,128,37.8
		s127.7-16.9,128-37.8h0L256,37.8L256,37.8z M128,64.9c-50.2,0-90.9-12.1-90.9-27c0-14.9,40.7-27,90.9-27s90.9,12.1,90.9,27
		C218.9,52.9,178.2,64.9,128,64.9z"/>
</g>
</svg>
