<?xml version="1.0" encoding="utf-8"?>
<!-- Generator: Adobe Illustrator 19.0.0, SVG Export Plug-In . SVG Version: 6.00 Build 0)  -->
<svg version="1.1" id="Layer_1" xmlns="http://www.w3.org/2000/svg" xmlns:xlink="http://www.w3.org/1999/xlink" x="0px" y="0px"
	 viewBox="0 0 256 256" style="enable-background:new 0 0 256 256;" xml:space="preserve">
<style type="text/css">
	.st0{fill:#2B2B2B;}
</style>
<g id="XMLID_41_">
	<path id="XMLID_84_" class="st0" d="M166.6,80.4c-5.3-13.8-2.7-26.9-1.1-32.8c0.3-1.1-1-1.9-1.9-1.2
		c-16.4,12.3-14.6,35.9-13.7,42.5c0.1,0.9-0.9,1.4-1.6,0.9c-3.1-2.2-8.3-9.8-2.3-36.8c7.2-32.7-19.6-49.7-25.1-52.9
		c-0.4-0.2-0.8,0.1-0.7,0.6c13.6,54.1-16.3,73.6-16.3,73.6C100.6,54,89.1,46.5,84,44.1c-0.8-0.4-1.6,0.5-1.2,1.2
		c11.9,22.1-5.5,38.1-5.5,38.1c-27.4,36.5,7.9,62.4,17.1,68c0.7,0.5,1.6-0.3,1.3-1.1c-1.2-3.1-2.2-8.9,2.2-16.4
		c6.7-11.5,2.9-21,2.9-21c7.1,1.9,9.7,13.3,10.4,16.7c0.1,0.4,0.6,0.5,0.9,0.2c10-10.4-2.4-10.1-2.4-24.5c0-11.5,9-21.9,13-25.8
		c0.5-0.5,1.3,0,1.2,0.7c-4.9,20.9,4.1,33.5,8.5,38.1c0.9,1,2.6,0.6,3-0.7c3.4-11.8,10.3-12.3,11.4-12.3c0.1,0,0.2,0,0.2,0
		c-3.4,14.7-3,12.3,7.6,27.2c5.3,7.5,3.8,13.3,2.6,16.2c-0.3,0.7,0.4,1.4,1.1,1.1c7.8-3.7,19.5-10.8,23.3-21.5
		C187.2,111.6,173.7,99.1,166.6,80.4z"/>
	<path id="XMLID_88_" class="st0" d="M110.6,111.3L110.6,111.3c0.2,0.7,0.5,1.4,0.7,2.1C111,112.7,110.8,112,110.6,111.3z"/>
	<path id="XMLID_206_" class="st0" d="M111.8,130c-0.1,0-0.1,0-0.2,0C111.7,130,111.7,130,111.8,130C111.8,130,111.8,130,111.8,130z
		"/>
	<path id="XMLID_207_" class="st0" d="M111.3,113.4c0.4,0.8,0.8,1.6,1.2,2.3C112.1,115,111.7,114.2,111.3,113.4z"/>
	<path id="XMLID_208_" class="st0" d="M133.6,118.8C133.6,118.8,133.6,118.8,133.6,118.8C133.6,118.8,133.6,118.8,133.6,118.8
		C133.6,118.8,133.6,118.8,133.6,118.8z"/>
	<path id="XMLID_209_" class="st0" d="M107.2,118.3c-1.5-2.5-3.6-4.7-6.4-5.4C103.6,113.6,105.7,115.7,107.2,118.3z"/>
	<g id="XMLID_10_">
		<path id="XMLID_1_" class="st0" d="M247.7,217.3h-68c-4.6,0-8.3,3.7-8.3,8.3v22c0,4.6,3.7,8.3,8.3,8.3h68c4.6,0,8.3-3.7,8.3-8.3
			v-22C256,221,252.3,217.3,247.7,217.3z"/>
		<path id="XMLID_15_" class="st0" d="M138.4,217.3H8.3c-4.6,0-8.3,3.7-8.3,8.3v22c0,4.6,3.7,8.3,8.3,8.3h130.1
			c4.6,0,8.3-3.7,8.3-8.3v-22C146.8,221,143,217.3,138.4,217.3z"/>
	</g>
	<path id="XMLID_53_" class="st0" d="M201.1,135.3c-2,5.6-5,10.5-8.6,14.8h55.1c4.6,0,8.3-3.7,8.3-8.3v-22c0-4.6-3.7-8.3-8.3-8.3
		h-44.7C204.3,118.6,204.2,126.6,201.1,135.3z"/>
	<path id="XMLID_56_" class="st0" d="M97.3,134.9c-0.4,0.7-0.7,1.4-1,2C96.7,136.2,97,135.6,97.3,134.9z"/>
	<path id="XMLID_57_" class="st0" d="M46.1,111.3H8.3c-4.6,0-8.3,3.7-8.3,8.3v22c0,4.6,3.7,8.3,8.3,8.3h52.8
		c-6.2-7.6-11.8-17.2-14.1-28.8C46.5,118.3,46.1,115,46.1,111.3z"/>
	<path id="XMLID_284_" class="st0" d="M111.7,130C111.8,130,111.8,130,111.7,130c0,0-0.1,0-0.1,0C111.7,130,111.7,130,111.7,130z"/>
	<path id="XMLID_285_" class="st0" d="M133.6,118.8C133.6,118.8,133.6,118.8,133.6,118.8C133.6,118.8,133.6,118.8,133.6,118.8
		C133.6,118.8,133.6,118.8,133.6,118.8z"/>
	<path id="XMLID_286_" class="st0" d="M97.3,134.9c0.2-0.3,0.4-0.7,0.6-1c0.4-0.7,0.8-1.4,1.1-2.1c-0.3,0.7-0.7,1.4-1.1,2.1
		C97.7,134.2,97.5,134.5,97.3,134.9z"/>
	<path id="XMLID_287_" class="st0" d="M131.7,117.6c-0.7-0.8-1.4-1.7-2.2-2.8C130.3,115.9,131,116.8,131.7,117.6z"/>
	<path id="XMLID_288_" class="st0" d="M76.2,164.3H8.3c-4.6,0-8.3,3.7-8.3,8.3v22c0,4.6,3.7,8.3,8.3,8.3h68c4.6,0,8.3-3.7,8.3-8.3
		v-22c0-1.1-0.2-2.1-0.6-3c-0.2-0.1-0.4-0.2-0.6-0.3C81.9,168.3,79.3,166.6,76.2,164.3z"/>
	<path id="XMLID_21_" class="st0" d="M247.7,164.3H117.6c-4.6,0-8.3,3.7-8.3,8.3v22c0,4.6,3.7,8.3,8.3,8.3h130.1
		c4.6,0,8.3-3.7,8.3-8.3v-22C256,168,252.3,164.3,247.7,164.3z"/>
</g>
</svg>
