<?xml version="1.0" encoding="utf-8"?>
<!-- Generator: Adobe Illustrator 19.0.0, SVG Export Plug-In . SVG Version: 6.00 Build 0)  -->
<svg version="1.1" id="Layer_1" xmlns="http://www.w3.org/2000/svg" xmlns:xlink="http://www.w3.org/1999/xlink" x="0px" y="0px"
	 viewBox="0 0 256 256" style="enable-background:new 0 0 256 256;" xml:space="preserve">
<style type="text/css">
	.st0{fill:#2B2B2B;}
</style>
<g id="XMLID_83_">
	<g id="XMLID_50_">
		<path id="XMLID_19_" class="st0" d="M1039.3,180.3c-51.8,0-93.8,15.1-93.8,33.8v47.2c-0.1,0.6-0.1,1.2-0.1,1.9
			c0,18.7,42,33.8,93.8,33.8s93.8-15.1,93.8-33.8h0.1v-49C1133.1,195.4,1091.1,180.3,1039.3,180.3z M1039.3,241.7
			c-42.3,0-76.6-12.4-76.6-27.6c0-15.2,34.3-27.6,76.6-27.6s76.6,12.4,76.6,27.6C1116,229.3,1081.7,241.7,1039.3,241.7z"/>
		<g id="XMLID_49_">
			<g id="XMLID_36_">
				<path id="XMLID_32_" class="st0" d="M935.7,84h-50.7c-4.4,0-7.9-3.5-7.9-7.9V48.8c0-4.4,3.5-7.9,7.9-7.9h50.7
					c4.4,0,7.9,3.5,7.9,7.9v27.2C943.6,80.4,940.1,84,935.7,84z"/>
				<path id="XMLID_45_" class="st0" d="M1033.5,69.2h-99.1c-3,0-5.5-2.5-5.5-5.5s2.5-5.5,5.5-5.5h99.1c3,0,5.5,2.5,5.5,5.5
					S1036.6,69.2,1033.5,69.2z"/>
			</g>
			<g id="XMLID_48_">
				<g id="XMLID_47_">
					<g id="XMLID_39_">
						<path id="XMLID_46_" class="st0" d="M935.7,148h-50.7c-4.4,0-7.9-3.5-7.9-7.9v-27.2c0-4.4,3.5-7.9,7.9-7.9h50.7
							c4.4,0,7.9,3.5,7.9,7.9v27.2C943.6,144.4,940.1,148,935.7,148z"/>
						<path id="XMLID_44_" class="st0" d="M1033.5,133.2h-93.1c-3,0-5.5-2.5-5.5-5.5s2.5-5.5,5.5-5.5h93.1c3,0,5.5,2.5,5.5,5.5
							S1036.6,133.2,1033.5,133.2z"/>
					</g>
					<path id="XMLID_43_" class="st0" d="M1033.5,226.8c-3,0-5.5-2.5-5.5-5.5V63.7c0-3,2.5-5.5,5.5-5.5s5.5,2.5,5.5,5.5v157.6
						C1039,224.3,1036.6,226.8,1033.5,226.8z"/>
				</g>
				<path id="XMLID_42_" class="st0" d="M1033.5,226.8c-1.5,0-3-0.6-4.1-1.8c-2-2.2-1.9-5.7,0.4-7.8l20.9-19c2.2-2,5.7-1.9,7.8,0.4
					c2,2.2,1.9,5.7-0.4,7.8l-20.9,19C1036.2,226.3,1034.9,226.8,1033.5,226.8z"/>
				<path id="XMLID_40_" class="st0" d="M1033.5,226.8c-1.3,0-2.6-0.5-3.7-1.4l-20.9-19c-2.2-2-2.4-5.5-0.4-7.8s5.5-2.4,7.8-0.4
					l20.9,19c2.2,2,2.4,5.5,0.4,7.8C1036.5,226.2,1035,226.8,1033.5,226.8z"/>
			</g>
		</g>
	</g>
</g>
<g id="XMLID_2_">
	<path id="XMLID_3_" class="st0" d="M255.9,241.6c-2.1-16.3-6-58-8.9-86.6c-4.1-40.7-26.3-56.2-39.2-58.7c-9.9-2-22.5-5.5-27.9-7
		c-1.4-0.4-2.8,0.5-3.1,1.9c-8.1,34.9-19.2,60.7-29.2,78.2l-16.5-59.1c-0.8-2.1-3.7-2.2-4.6-0.1l-19.4,63
		c-8.9-17.6-19.6-44.7-28.2-82.1c-0.3-1.4-1.8-2.3-3.1-1.9c-5.3,1.5-18,5-27.8,7c-12.9,2.6-35,18-39.2,58.7
		c-2.9,28.6-6.8,70.3-8.9,86.6c-0.8,5.9,3.7,11.3,9.7,11.5C32.5,254,87.1,256,128,256c40.9,0,95.5-2,118.2-2.9
		C252.2,252.9,256.7,247.6,255.9,241.6z"/>
	<circle id="XMLID_6_" class="st0" cx="128" cy="47.9" r="47.9"/>
</g>
</svg>
