<?xml version="1.0" encoding="utf-8"?>
<!-- Generator: Adobe Illustrator 19.0.0, SVG Export Plug-In . SVG Version: 6.00 Build 0)  -->
<svg version="1.1" id="Layer_1" xmlns="http://www.w3.org/2000/svg" xmlns:xlink="http://www.w3.org/1999/xlink" x="0px" y="0px"
	 viewBox="0 0 256 256" style="enable-background:new 0 0 256 256;" xml:space="preserve">
<style type="text/css">
	.st0{fill:#2B2B2B;}
</style>
<g id="XMLID_1_">
	<path id="XMLID_3_" class="st0" d="M99.5,256c-3.5,0-6.9-1.3-9.6-4l-71.8-71.8c-24.3-24.3-24.3-63.8,0-88L48,62.5
		c24.3-24.3,63.8-24.3,88,0l52.2,52.2c2.6,2.6,4,5.9,4,9.6c0,3.6-1.4,7-4,9.6c-2.6,2.6-5.9,4-9.6,4s-7-1.4-9.6-4l-52.2-52.2
		c-13.7-13.7-36.1-13.7-49.8,0l-29.8,29.8c-13.7,13.7-13.7,36.1,0,49.8l71.8,71.8c5.3,5.3,5.3,13.8,0,19.1
		C106.5,254.7,103,256,99.5,256z"/>
	<path id="XMLID_2_" class="st0" d="M168,207.8c-16.6,0-32.3-6.5-44-18.2l-52.2-52.2c-2.6-2.6-4-5.9-4-9.6s1.4-7,4-9.6
		c5.3-5.3,13.8-5.3,19.1,0l52.2,52.2c6.6,6.6,15.5,10.3,24.9,10.3s18.3-3.7,24.9-10.3l25.8-25.8c6.6-6.6,10.3-15.5,10.3-24.9
		c0-9.4-3.7-18.3-10.3-24.9l-71.8-71.8c-2.6-2.6-4-5.9-4-9.6s1.4-7,4-9.6c2.6-2.6,5.9-4,9.6-4c3.6,0,7,1.4,9.6,4l71.8,71.8
		c24.3,24.3,24.3,63.8,0,88L212,189.6C200.3,201.3,184.6,207.8,168,207.8z"/>
</g>
</svg>
