<?xml version="1.0" encoding="utf-8"?>
<!-- Generator: Adobe Illustrator 19.0.0, SVG Export Plug-In . SVG Version: 6.00 Build 0)  -->
<svg version="1.1" id="Layer_1" xmlns="http://www.w3.org/2000/svg" xmlns:xlink="http://www.w3.org/1999/xlink" x="0px" y="0px"
	 viewBox="0 0 256 256" style="enable-background:new 0 0 256 256;" xml:space="preserve">
<style type="text/css">
	.st0{fill:#2B2B2B;}
</style>
<path id="XMLID_12_" class="st0" d="M254.1,121.8L222,88.7c-1.4-1.4-3.8-0.4-3.8,1.5V114h-36.9c-4.8-20.1-20.6-35.9-40.7-40.7V37.8
	h23.7c2,0,3-2.4,1.5-3.8L132.3,1.9c-2.6-2.5-6.7-2.5-9.3,0L90,34c-1.4,1.4-0.4,3.8,1.5,3.8h23.8v35.6C95.3,78.1,79.4,94,74.6,114
	H37.8V90.3c0-2-2.4-3-3.8-1.5L1.9,121.8c-2.5,2.6-2.5,6.7,0,9.3L34,164.6c1.4,1.4,3.8,0.5,3.8-1.5v-23.7h36.9
	c4.8,20.1,20.6,35.9,40.7,40.7v17.8c-10.5,4.8-17.8,15.4-17.8,27.7c0,16.8,13.6,30.4,30.4,30.4c16.8,0,30.4-13.6,30.4-30.4
	c0-12.3-7.3-22.9-17.8-27.7v-17.8c20.1-4.8,35.9-20.6,40.7-40.7h36.9v23.7c0,2,2.4,3,3.8,1.5l32.1-33.6
	C256.6,128.5,256.6,124.4,254.1,121.8z M128,156.2c-16.3,0-29.5-13.2-29.5-29.5c0-16.3,13.2-29.5,29.5-29.5s29.5,13.2,29.5,29.5
	C157.5,143,144.3,156.2,128,156.2z"/>
</svg>
