<?xml version="1.0" encoding="utf-8"?>
<!-- Generator: Adobe Illustrator 19.0.0, SVG Export Plug-In . SVG Version: 6.00 Build 0)  -->
<svg version="1.1" id="Layer_1" xmlns="http://www.w3.org/2000/svg" xmlns:xlink="http://www.w3.org/1999/xlink" x="0px" y="0px"
	 viewBox="0 0 256 256" style="enable-background:new 0 0 256 256;" xml:space="preserve">
<style type="text/css">
	.st0{fill:#2B2B2B;}
</style>
<g id="XMLID_83_">
	<g id="XMLID_50_">
		<path id="XMLID_19_" class="st0" d="M1039.3,180.3c-51.8,0-93.8,15.1-93.8,33.8v47.2c-0.1,0.6-0.1,1.2-0.1,1.9
			c0,18.7,42,33.8,93.8,33.8s93.8-15.1,93.8-33.8h0.1v-49C1133.1,195.4,1091.1,180.3,1039.3,180.3z M1039.3,241.7
			c-42.3,0-76.6-12.4-76.6-27.6c0-15.2,34.3-27.6,76.6-27.6s76.6,12.4,76.6,27.6C1116,229.3,1081.7,241.7,1039.3,241.7z"/>
		<g id="XMLID_49_">
			<g id="XMLID_36_">
				<path id="XMLID_32_" class="st0" d="M935.7,84h-50.7c-4.4,0-7.9-3.5-7.9-7.9V48.8c0-4.4,3.5-7.9,7.9-7.9h50.7
					c4.4,0,7.9,3.5,7.9,7.9v27.2C943.6,80.4,940.1,84,935.7,84z"/>
				<path id="XMLID_45_" class="st0" d="M1033.5,69.2h-99.1c-3,0-5.5-2.5-5.5-5.5s2.5-5.5,5.5-5.5h99.1c3,0,5.5,2.5,5.5,5.5
					S1036.6,69.2,1033.5,69.2z"/>
			</g>
			<g id="XMLID_48_">
				<g id="XMLID_47_">
					<g id="XMLID_39_">
						<path id="XMLID_46_" class="st0" d="M935.7,148h-50.7c-4.4,0-7.9-3.5-7.9-7.9v-27.2c0-4.4,3.5-7.9,7.9-7.9h50.7
							c4.4,0,7.9,3.5,7.9,7.9v27.2C943.6,144.4,940.1,148,935.7,148z"/>
						<path id="XMLID_44_" class="st0" d="M1033.5,133.2h-93.1c-3,0-5.5-2.5-5.5-5.5s2.5-5.5,5.5-5.5h93.1c3,0,5.5,2.5,5.5,5.5
							S1036.6,133.2,1033.5,133.2z"/>
					</g>
					<path id="XMLID_43_" class="st0" d="M1033.5,226.8c-3,0-5.5-2.5-5.5-5.5V63.7c0-3,2.5-5.5,5.5-5.5s5.5,2.5,5.5,5.5v157.6
						C1039,224.3,1036.6,226.8,1033.5,226.8z"/>
				</g>
				<path id="XMLID_42_" class="st0" d="M1033.5,226.8c-1.5,0-3-0.6-4.1-1.8c-2-2.2-1.9-5.7,0.4-7.8l20.9-19c2.2-2,5.7-1.9,7.8,0.4
					c2,2.2,1.9,5.7-0.4,7.8l-20.9,19C1036.2,226.3,1034.9,226.8,1033.5,226.8z"/>
				<path id="XMLID_40_" class="st0" d="M1033.5,226.8c-1.3,0-2.6-0.5-3.7-1.4l-20.9-19c-2.2-2-2.4-5.5-0.4-7.8s5.5-2.4,7.8-0.4
					l20.9,19c2.2,2,2.4,5.5,0.4,7.8C1036.5,226.2,1035,226.8,1033.5,226.8z"/>
			</g>
		</g>
	</g>
</g>
<path id="XMLID_10_" class="st0" d="M242.2,97h-20H222v41.7c0,16.3-13.5,29.5-29.9,29c-15.8-0.5-28.1-13.8-28.1-29.6V97H65.2V65.2
	c0-19.6,16-35.6,35.6-35.6h42.3c19.6,0,35.6,16,35.6,35.6v73.5c0,8.2,6.7,14.9,14.9,14.9c8.2,0,14.9-6.7,14.9-14.9V65.2
	c0-36-29.3-65.3-65.3-65.3h-42.3c-36,0-65.3,29.3-65.3,65.3V97H13.8C6.1,97,0,103.2,0,110.8l0,115C0,242.5,13.5,256,30.2,256h195.7
	c16.7,0,30.2-13.5,30.2-30.2V110.8C256,103.2,249.8,97,242.2,97z M94.9,219.4l10.4-42.9c-4.7-3.6-7.8-9.3-7.8-15.8
	c0-11,8.9-19.9,19.9-19.9s19.9,8.9,19.9,19.9c0,6.4-3.1,12.1-7.8,15.8l10.4,42.9H94.9z"/>
</svg>
