<?xml version="1.0" encoding="utf-8"?>
<!-- Generator: Adobe Illustrator 19.0.0, SVG Export Plug-In . SVG Version: 6.00 Build 0)  -->
<svg version="1.1" id="Layer_1" xmlns="http://www.w3.org/2000/svg" xmlns:xlink="http://www.w3.org/1999/xlink" x="0px" y="0px"
	 viewBox="0 0 256 256" style="enable-background:new 0 0 256 256;" xml:space="preserve">
<style type="text/css">
	.st0{fill:#2B2B2B;}
</style>
<g id="XMLID_162_">
	<path id="XMLID_30_" class="st0" d="M249,256H7c-3.9,0-7-3.1-7-7v-85.2c0-3.9,3.1-7,7-7s7,3.1,7,7V242h228v-78.2c0-3.9,3.1-7,7-7
		c3.9,0,7,3.1,7,7V249C256,252.9,252.9,256,249,256z"/>
	<g id="XMLID_161_">
		<g id="XMLID_24_">
			<path id="XMLID_25_" class="st0" d="M165.4,218.3V7.5c0-4.1-3.4-7.5-7.5-7.5L40.8,0c-4.1,0-7.5,3.4-7.5,7.5V89
				c0,2-0.8,3.9-2.2,5.3l-11.8,11.8c-2.9,2.9-2.9,7.7,0,10.6L31,128.5c1.4,1.4,2.2,3.3,2.2,5.3v84.4c0,4.1,3.4,7.5,7.5,7.5h117.1
				C162,225.8,165.4,222.4,165.4,218.3z M74.9,181.7V44c0-3.9,3.1-7,7-7s7,3.1,7,7v137.7c0,3.9-3.1,7-7,7S74.9,185.6,74.9,181.7z
				 M109.1,181.7V44c0-3.9,3.1-7,7-7s7,3.1,7,7v137.7c0,3.9-3.1,7-7,7S109.1,185.6,109.1,181.7z"/>
		</g>
		<path id="XMLID_175_" class="st0" d="M190.5,0H178c0.9,2.3,1.4,4.9,1.4,7.5v210.7c0,2.6-0.5,5.2-1.4,7.5h12.5
			c4.1,0,7.5-3.4,7.5-7.5V7.5C198.1,3.4,194.7,0,190.5,0z"/>
		<path id="XMLID_159_" class="st0" d="M221.5,0H209c0.9,2.3,1.4,4.9,1.4,7.5v210.7c0,2.6-0.5,5.2-1.4,7.5h12.5
			c4.1,0,7.5-3.4,7.5-7.5V7.5C229.1,3.4,225.7,0,221.5,0z"/>
	</g>
</g>
</svg>
