<?xml version="1.0" encoding="utf-8"?>
<!-- Generator: Adobe Illustrator 19.0.0, SVG Export Plug-In . SVG Version: 6.00 Build 0)  -->
<svg version="1.1" id="Layer_1" xmlns="http://www.w3.org/2000/svg" xmlns:xlink="http://www.w3.org/1999/xlink" x="0px" y="0px"
	 viewBox="0 0 256 256" style="enable-background:new 0 0 256 256;" xml:space="preserve">
<style type="text/css">
	.st0{fill:#2B2B2B;}
</style>
<g id="XMLID_83_">
	<g id="XMLID_50_">
		<path id="XMLID_19_" class="st0" d="M1039.3,180.3c-51.8,0-93.8,15.1-93.8,33.8v47.2c-0.1,0.6-0.1,1.2-0.1,1.9
			c0,18.7,42,33.8,93.8,33.8s93.8-15.1,93.8-33.8h0.1v-49C1133.1,195.4,1091.1,180.3,1039.3,180.3z M1039.3,241.7
			c-42.3,0-76.6-12.4-76.6-27.6c0-15.2,34.3-27.6,76.6-27.6s76.6,12.4,76.6,27.6C1116,229.3,1081.7,241.7,1039.3,241.7z"/>
		<g id="XMLID_49_">
			<g id="XMLID_36_">
				<path id="XMLID_32_" class="st0" d="M935.7,84h-50.7c-4.4,0-7.9-3.5-7.9-7.9V48.8c0-4.4,3.5-7.9,7.9-7.9h50.7
					c4.4,0,7.9,3.5,7.9,7.9v27.2C943.6,80.4,940.1,84,935.7,84z"/>
				<path id="XMLID_45_" class="st0" d="M1033.5,69.2h-99.1c-3,0-5.5-2.5-5.5-5.5s2.5-5.5,5.5-5.5h99.1c3,0,5.5,2.5,5.5,5.5
					S1036.6,69.2,1033.5,69.2z"/>
			</g>
			<g id="XMLID_48_">
				<g id="XMLID_47_">
					<g id="XMLID_39_">
						<path id="XMLID_46_" class="st0" d="M935.7,148h-50.7c-4.4,0-7.9-3.5-7.9-7.9v-27.2c0-4.4,3.5-7.9,7.9-7.9h50.7
							c4.4,0,7.9,3.5,7.9,7.9v27.2C943.6,144.4,940.1,148,935.7,148z"/>
						<path id="XMLID_44_" class="st0" d="M1033.5,133.2h-93.1c-3,0-5.5-2.5-5.5-5.5s2.5-5.5,5.5-5.5h93.1c3,0,5.5,2.5,5.5,5.5
							S1036.6,133.2,1033.5,133.2z"/>
					</g>
					<path id="XMLID_43_" class="st0" d="M1033.5,226.8c-3,0-5.5-2.5-5.5-5.5V63.7c0-3,2.5-5.5,5.5-5.5s5.5,2.5,5.5,5.5v157.6
						C1039,224.3,1036.6,226.8,1033.5,226.8z"/>
				</g>
				<path id="XMLID_42_" class="st0" d="M1033.5,226.8c-1.5,0-3-0.6-4.1-1.8c-2-2.2-1.9-5.7,0.4-7.8l20.9-19c2.2-2,5.7-1.9,7.8,0.4
					c2,2.2,1.9,5.7-0.4,7.8l-20.9,19C1036.2,226.3,1034.9,226.8,1033.5,226.8z"/>
				<path id="XMLID_40_" class="st0" d="M1033.5,226.8c-1.3,0-2.6-0.5-3.7-1.4l-20.9-19c-2.2-2-2.4-5.5-0.4-7.8s5.5-2.4,7.8-0.4
					l20.9,19c2.2,2,2.4,5.5,0.4,7.8C1036.5,226.2,1035,226.8,1033.5,226.8z"/>
			</g>
		</g>
	</g>
</g>
<g id="XMLID_201_">
	<g id="XMLID_18_">
		<path id="XMLID_5_" class="st0" d="M116.8,139.8H35.5c-4.4,0-8-3.6-8-8c0-4.4,3.6-8,8-8h81.3c4.4,0,8,3.6,8,8
			C124.8,136.2,121.2,139.8,116.8,139.8z"/>
		<path id="XMLID_4_" class="st0" d="M116.8,115.2H35.5c-4.4,0-8-3.6-8-8s3.6-8,8-8h81.3c4.4,0,8,3.6,8,8S121.2,115.2,116.8,115.2z"
			/>
	</g>
	<g id="XMLID_223_">
		<path id="XMLID_228_" class="st0" d="M256,248.6c-1.1-8.4-3.1-29.7-4.6-44.4c-2.1-20.9-13.5-28.8-20.1-30.1
			c-5.1-1-11.6-2.8-14.3-3.6c-0.7-0.2-1.4,0.2-1.6,1c-7.9,34.3-21.7,51.6-25.7,54.5c-0.7,0.5-1.6,0.4-2.2-0.1
			c-3.4-3.1-14.6-20.6-22.3-54.4c-0.2-0.7-0.9-1.2-1.6-1c-2.7,0.8-9.2,2.6-14.3,3.6c-6.6,1.3-18,9.3-20.1,30.1
			c-1.5,14.7-3.5,36.1-4.6,44.4c-0.4,3.1,1.9,5.8,5,5.9c11.7,0.5,39.6,1.5,60.7,1.5c21,0,49-1,60.7-1.5
			C254,254.4,256.3,251.7,256,248.6z"/>
		<circle id="XMLID_227_" class="st0" cx="190.3" cy="149.2" r="24.6"/>
		<path id="XMLID_224_" class="st0" d="M179.2,215.1l10.4-33.9c0.4-1.1,2-1,2.3,0l9.5,33.8c0,0,1.6,18.4-11.1,18.4
			C177.6,233.5,179.2,215.1,179.2,215.1z"/>
	</g>
	<path id="XMLID_226_" class="st0" d="M108.8,246.6c0.7-5.7,1.9-18.1,3.1-30c0.1-1.1,0.2-2.1,0.3-3.2H13.9V30.9h122.6V162
		c3.1-1.8,6.4-3,9.7-3.7c1.3-0.3,2.8-0.6,4.2-1v-0.6c-0.5-2.4-0.7-5-0.7-7.5c0-2.6,0.3-5.1,0.7-7.5v-125C150.4,7.5,143,0,133.8,0
		H16.7C7.5,0,0,7.5,0,16.7v222.7c0,9.2,7.5,16.7,16.7,16.7h93.1C108.7,253,108.4,249.8,108.8,246.6z M59.5,13.3h31.5
		c1.7,0,3,1.4,3,3c0,1.7-1.4,3-3,3H59.5c-1.7,0-3-1.4-3-3C56.5,14.6,57.8,13.3,59.5,13.3z M75.2,246.5c-6.5,0-11.8-5.3-11.8-11.8
		c0-6.5,5.3-11.8,11.8-11.8c6.5,0,11.8,5.3,11.8,11.8C87,241.2,81.7,246.5,75.2,246.5z"/>
</g>
</svg>
